<svg width="22" height="22" viewBox="0 0 22 22" fill="none" xmlns="http://www.w3.org/2000/svg">
<rect width="22" height="22" rx="4" fill="#FFA1B3"/>
<path d="M10.5714 13.5714V8.42856H11.8571V13.5714H10.5714ZM5.85714 13.5714C5.6 13.5714 5.39286 13.4821 5.23571 13.3036C5.07857 13.125 5 12.9286 5 12.7143V9.2857C5 9.07142 5.07857 8.87499 5.23571 8.69642C5.39286 8.51784 5.6 8.42856 5.85714 8.42856H8.42857C8.68571 8.42856 8.89286 8.51784 9.05 8.69642C9.20714 8.87499 9.28571 9.07142 9.28571 9.2857V9.71427H6.28571V12.2857H8V11H9.28571V12.7143C9.28571 12.9286 9.20714 13.125 9.05 13.3036C8.89286 13.4821 8.68571 13.5714 8.42857 13.5714H5.85714ZM13.1429 13.5714V8.42856H17V9.71427H14.4286V10.5714H16.1429V11.8571H14.4286V13.5714H13.1429Z" fill="white"/>
</svg>
