<svg width="30" height="30" viewBox="0 0 30 30" fill="none" xmlns="http://www.w3.org/2000/svg">
<mask id="mask0_2030_274" style="mask-type:alpha" maskUnits="userSpaceOnUse" x="0" y="0" width="30" height="30">
<rect width="30" height="30" fill="#D9D9D9"/>
</mask>
<g mask="url(#mask0_2030_274)">
<path d="M11.25 15.75C12.6646 15.75 14.0587 15.9158 15.4307 16.248L15.9434 16.3809C16.968 16.6611 17.9791 17.0343 18.9766 17.5L19.4736 17.7402L19.4795 17.7432L19.7314 17.8838C20.3028 18.2299 20.7693 18.6996 21.1289 19.2852C21.5427 19.959 21.75 20.7009 21.75 21.5V25.5H0.75V21.5C0.75 20.7009 0.957339 19.959 1.37109 19.2852L1.53125 19.041C1.92151 18.4888 2.41938 18.0541 3.02051 17.7432L3.02637 17.7402L3.52344 17.5C4.68695 16.9568 5.86893 16.5388 7.06934 16.248L7.58496 16.1318C8.79029 15.8774 10.0121 15.75 11.25 15.75ZM20.8711 15.9414C21.963 16.0699 22.995 16.2897 23.9658 16.6025L24.3242 16.7217C25.0364 16.9681 25.7138 17.2547 26.3564 17.5811L26.6748 17.7471L26.6807 17.75L26.9697 17.918C27.6264 18.3165 28.1594 18.7656 28.5518 19.2715L28.7129 19.4971C29.0662 20.0303 29.25 20.6173 29.25 21.25V25.5H23.25V21.25C23.25 20.5337 23.0769 19.838 22.7207 19.1582L22.5566 18.8682C22.0905 18.0976 21.424 17.4258 20.542 16.8574L20.8711 15.9414ZM11.25 19.25C10.2648 19.25 9.28712 19.3535 8.31641 19.5615L7.90039 19.6572C6.79865 19.9277 5.70361 20.3332 4.61523 20.876C4.53381 20.9216 4.4645 20.9802 4.40527 21.0547L4.34863 21.1357C4.28414 21.2413 4.25 21.3587 4.25 21.5V22H18.25V21.5C18.25 21.3587 18.2159 21.2413 18.1514 21.1357C18.081 21.0207 17.9931 20.9371 17.8838 20.876C16.9324 20.4016 15.9762 20.0317 15.0146 19.7656L14.5996 19.6572C13.4923 19.3854 12.376 19.25 11.25 19.25ZM11.25 4.5C12.7587 4.5 14.0626 5.04304 15.1348 6.11523L15.3301 6.31933C16.2729 7.35148 16.75 8.58582 16.75 10C16.75 11.4142 16.2729 12.6485 15.3301 13.6807L15.1348 13.8848C14.0626 14.9569 12.7587 15.5 11.25 15.5C9.74134 15.5 8.43742 14.9569 7.36523 13.8848C6.29305 12.8126 5.75 11.5087 5.75 10C5.75 8.49133 6.29305 7.18742 7.36523 6.11523L7.56934 5.91992C8.60148 4.97707 9.83583 4.5 11.25 4.5ZM18.75 4.5C20.2587 4.5 21.5626 5.04304 22.6348 6.11523L22.8301 6.31933C23.7729 7.35148 24.25 8.58582 24.25 10C24.25 11.4142 23.7729 12.6485 22.8301 13.6807L22.6348 13.8848C21.5626 14.9569 20.2587 15.5 18.75 15.5C18.4871 15.5 18.169 15.4708 17.8027 15.417C17.4376 15.3633 17.1237 15.3021 16.8682 15.2324L16.1123 15.0264L16.6182 14.4277C17.1436 13.8049 17.5463 13.1154 17.8281 12.3574C18.1093 11.6012 18.25 10.8161 18.25 10C18.25 9.18391 18.1093 8.39879 17.8281 7.64257C17.5463 6.88461 17.1436 6.19504 16.6182 5.57226L16.1533 5.02148L16.832 4.77929C17.1586 4.66268 17.4885 4.5855 17.8213 4.5498L18.2861 4.51269C18.4407 4.50442 18.5953 4.5 18.75 4.5ZM11.25 8C10.7652 8 10.351 8.14664 9.98926 8.44921L9.83789 8.58789C9.44133 8.98445 9.25 9.44616 9.25 10C9.25 10.5538 9.44133 11.0155 9.83789 11.4121L9.98926 11.5508C10.351 11.8533 10.7652 12 11.25 12C11.8038 12 12.2655 11.8087 12.6621 11.4121L12.8008 11.2607C13.1034 10.899 13.25 10.4848 13.25 10C13.25 9.51517 13.1034 9.10097 12.8008 8.73925L12.6621 8.58789C12.2655 8.19132 11.8038 8 11.25 8Z" fill="#FFA1B3" stroke="#EDE964"/>
</g>
</svg>
