<svg width="31" height="28" viewBox="0 0 31 28" fill="none" xmlns="http://www.w3.org/2000/svg">
<rect x="3.92029" y="4" width="17" height="20" rx="4" fill="#FFA1B3" stroke="#EDE964" stroke-width="2"/>
<mask id="mask0_2030_252" style="mask-type:alpha" maskUnits="userSpaceOnUse" x="6" y="7" width="13" height="13">
<rect x="6" y="7" width="13" height="13" fill="#D9D9D9"/>
</mask>
<g mask="url(#mask0_2030_252)">
<path d="M7.625 10.7917V9.70834H17.375V10.7917H7.625ZM7.625 17.2917V16.2083H17.375V17.2917H7.625ZM7.625 14.0417V12.9583H17.375V14.0417H7.625Z" fill="white"/>
</g>
<path d="M20.4193 9.20949H22.4422C23.1537 9.20949 23.8601 9.33046 24.5311 9.56723V9.56723C25.6002 9.94442 26.5726 10.5878 27.1925 11.5368C27.2862 11.6802 27.377 11.8261 27.4601 11.9701C27.966 12.846 28.0797 14.3213 28.0797 14.3213C28.0797 14.3213 28.0797 17.3627 26.1646 19.0176C24.5562 20.4074 20.1552 20.302 20.1552 20.302" stroke="#EDE964" stroke-width="4" stroke-linejoin="round"/>
<path d="M19.3627 9.20949L22.5078 9.20949C23.2177 9.20949 23.9222 9.33299 24.5898 9.57446V9.57446C25.6375 9.95344 26.5857 10.5964 27.1871 11.5343C27.2858 11.6882 27.3815 11.8452 27.4687 12C27.9676 12.8854 28.0797 14.3767 28.0797 14.3767C28.0797 14.3767 28.0797 17.4512 26.1913 19.124C24.6053 20.5289 18.9665 20.2881 18.9665 20.2881" stroke="#FFA1B3" stroke-width="2" stroke-linejoin="round"/>
</svg>
