<svg width="74" height="68" viewBox="0 0 74 68" fill="none" xmlns="http://www.w3.org/2000/svg">
<rect x="4.5" y="5.5" width="46.6667" height="57" rx="8.5" fill="#FFA1B3" stroke="#EDE964" stroke-width="5"/>
<path d="M49.9187 19H54.1764C56.0084 19 57.8197 19.3872 59.4915 20.1363V20.1363C61.7619 21.1536 63.7256 22.7836 64.9112 24.9707C65.2596 25.6133 65.6079 26.2954 65.9113 26.9625C67.0605 29.4889 67.3187 33.7442 67.3187 33.7442C67.3187 33.7442 67.3187 42.5169 62.9687 47.2901C59.3153 51.2988 49.3187 50.9947 49.3187 50.9947" stroke="#EDE964" stroke-width="12" stroke-linejoin="round"/>
<path d="M47.3187 19H53.0927C55.0073 19 56.9032 19.3769 58.6723 20.1091V20.1091C61.2152 21.1616 63.4523 22.8875 64.8288 25.2707C65.1618 25.8471 65.49 26.4488 65.7806 27.0389C67.0365 29.5897 67.3187 33.8858 67.3187 33.8858C67.3187 33.8858 67.3187 42.7428 62.5646 47.5618C58.5718 51.6091 47.3187 50.962 47.3187 50.962" stroke="#FFA1B3" stroke-width="4" stroke-linejoin="round"/>
</svg>
